HIERARCHY
ROOT Hips
{
  OFFSET -35.4901 99.2528 17.4586
  CHANNELS 6 Xposition Yposition Zposition Zrotation Xrotation Yrotation
  JOINT LeftUpLeg
  {
    OFFSET 8.64259 1.95398 -2.38835
    CHANNELS 3 Zrotation Xrotation Yrotation
    JOINT LeftLeg
    {
      OFFSET 43.7702 0 0
      CHANNELS 3 Zrotation Xrotation Yrotation
      JOINT LeftFoot
      {
        OFFSET 40.6238 0 0
        CHANNELS 3 Zrotation Xrotation Yrotation
        JOINT LeftToeBase
        {
          OFFSET 12.7242 0 0
          CHANNELS 3 Zrotation Xrotation Yrotation
          End Site
          {
            OFFSET 0 0 0
          }
        }
      }
    }
  }
  JOINT RightUpLeg
  {
    OFFSET -8.2249 1.95398 -2.59336
    CHANNELS 3 Zrotation Xrotation Yrotation
    JOINT RightLeg
    {
      OFFSET 43.5653 0 0
      CHANNELS 3 Zrotation Xrotation Yrotation
      JOINT RightFoot
      {
        OFFSET 40.6238 0 0
        CHANNELS 3 Zrotation Xrotation Yrotation
        JOINT RightToeBase
        {
          OFFSET 12.7242 0 0
          CHANNELS 3 Zrotation Xrotation Yrotation
          End Site
          {
            OFFSET 0 0 0
          }
        }
      }
    }
  }
  JOINT Spine
  {
    OFFSET 0.165834 0.87714 6.61349
    CHANNELS 3 Zrotation Xrotation Yrotation
    JOINT Spine1
    {
      OFFSET 7.38963 1.71661e-005 0
      CHANNELS 3 Zrotation Xrotation Yrotation
      JOINT Spine2
      {
        OFFSET 11.9445 1.14441e-005 0
        CHANNELS 3 Zrotation Xrotation Yrotation
        JOINT Spine3
        {
          OFFSET 14.7254 4.19617e-005 0
          CHANNELS 3 Zrotation Xrotation Yrotation
          JOINT Spine4
          {
            OFFSET 10.9679 0 0
            CHANNELS 3 Zrotation Xrotation Yrotation
            JOINT RightShoulder
            {
              OFFSET 2.46616 -1.6653 3.69651
              CHANNELS 3 Zrotation Xrotation Yrotation
              JOINT RightArm
              {
                OFFSET 13.0012 0 0
                CHANNELS 3 Zrotation Xrotation Yrotation
                JOINT RightForeArm
                {
                  OFFSET 28.7848 1.52588e-005 0
                  CHANNELS 3 Zrotation Xrotation Yrotation
                  JOINT RightHand
                  {
                    OFFSET 26.5688 1.52588e-005 0
                    CHANNELS 3 Zrotation Xrotation Yrotation
                    End Site
                    {
                      OFFSET 0 0 0
                    }
                  }
                }
              }
            }
            JOINT LeftShoulder
            {
              OFFSET 2.38034 -1.29275 -3.7523
              CHANNELS 3 Zrotation Xrotation Yrotation
              JOINT LeftArm
              {
                OFFSET 16.3182 6.10351e-005 0
                CHANNELS 3 Zrotation Xrotation Yrotation
                JOINT LeftForeArm
                {
                  OFFSET 27.0901 0 0
                  CHANNELS 3 Zrotation Xrotation Yrotation
                  JOINT LeftHand
                  {
                    OFFSET 24.5451 1.52588e-005 0
                    CHANNELS 3 Zrotation Xrotation Yrotation
                    End Site
                    {
                      OFFSET 0 0 0
                    }
                  }
                }
              }
            }
            JOINT Neck
            {
              OFFSET 5.0226 -0.0266342 0
              CHANNELS 3 Zrotation Xrotation Yrotation
              JOINT Head
              {
                OFFSET 6.69364 2.86102e-005 0
                CHANNELS 3 Zrotation Xrotation Yrotation
                End Site
                {
                  OFFSET 0 0 0
                }
              }
            }
          }
        }
      }
    }
  }
}
MOTION
Frames:	10
Frame Time:	0.0416667
-279.839 92.3065 -239.867 -111.111 44.5664 -70.7609 -173.227 18.3751 95.6864 -47.7175 20.7352 1.60736 69.8824 5.15848 1.6805 20.3716 4.19928 -5.33238 169.286 -3.53462 77.5358 -75.4379 -18.9493 -3.38524 71.2124 -5.86337 -1.20684 19.4427 -1.06816 3.42418 2.05212 7.58862 -90.7572 11.7308 3.72618 -1.90116 0.0635405 3.6389 -2.06344 -22.5123 4.12505 -0.691819 -2.49961 4.12504 -0.69183 96.6285 -40.2529 -91.7902 0.494378 9.0836 10.9876 -33.792 -2.40811 -99.3517 -32.7149 2.3703 -16.8467 -79.5698 -33.5565 93.7565 -47.9541 35.5194 56.5297 38.0912 -31.4063 -98.9605 -15.6439 2.69001 -27.9365 14.8349 -6.04278 1.07945 -5.95185 -6.09656 -1.87607 
-276.473 94.3398 -236.52 -110.679 43.7377 -71.0447 -174.52 16.8736 95.3221 -37.5841 23.6403 1.55376 60.1352 0.778801 2.70164 22.2039 3.20645 -4.21211 170.261 -10.6224 80.8604 -66.5997 -21.6948 -4.12664 71.139 -5.76403 -1.35023 21.53 -1.35538 3.96503 2.51721 7.41449 -90.6558 12.0909 4.69444 -1.82364 0.426806 4.60964 -2.02882 -22.1757 5.02502 -0.325163 -2.16307 5.025 -0.325162 95.7016 -34.8575 -94.3331 1.94425 5.28438 14.8734 -35.9437 0.125514 -100.243 -31.4882 2.05757 -16.2794 -79.1054 -31.2259 94.5255 -46.4466 32.6048 59.2257 37.7478 -33.9723 -103.507 -14.3478 2.66792 -30.2257 11.4455 -8.70828 0.359494 -5.17863 -8.4955 -3.06082 
-273.206 96.1827 -232.9 -110.224 43.4947 -72.2608 -175.662 13.3267 94.2091 -22.7583 23.8245 0.676415 48.7546 -4.18919 1.00728 23.4392 3.09209 -4.16024 170.838 -15.6523 82.5111 -57.4222 -23.0513 -4.91516 73.1255 -6.69562 -1.70002 21.2467 -1.54527 4.40242 2.77378 7.33934 -90.4326 12.2401 5.30813 -1.45686 0.578899 5.23888 -1.68965 -22.0437 5.49985 0.210616 -2.03109 5.49984 0.210612 95.0918 -31.395 -96.2341 3.69194 -2.02394 15.9837 -38.227 3.01207 -98.8161 -29.9072 1.74342 -15.6303 -78.467 -30.9506 95.7523 -39.6201 28.8184 56.8765 35.6735 -33.6133 -107.299 -11.916 2.16451 -30.9252 9.90489 -9.98421 0.300608 -6.89129 -9.6272 -4.96368 
-269.186 97.3485 -229.186 -106.514 42.8767 -75.5612 -176.351 15.0977 93.8329 -16.3553 22.6854 -0.199878 50.2872 -3.36079 -1.47703 14.7166 -1.64385 3.05232 170.879 -16.1758 84.542 -48.6696 -19.5976 -3.96557 76.5211 -7.81167 0.468431 20.627 -1.7933 4.95992 2.6379 6.98739 -90.1735 12.9348 5.15433 -0.972798 1.27354 5.10653 -1.19929 -21.3436 5.20773 0.625568 -1.33095 5.20775 0.625561 94.5593 -29.5084 -97.7383 7.33397 -10.1276 17.313 -39.5879 5.05655 -96.1443 -29.8721 2.1048 -16.9811 -79.4004 -30.9733 93.9408 -36.4355 21.9303 56.0969 35.4308 -32.8924 -109.913 -9.84146 1.62582 -30.2417 9.05593 -10.1577 -0.189484 -9.15067 -9.5337 -6.2799 
-264.776 97.6151 -225.04 -101.878 41.8997 -79.7361 -177.089 21.0443 93.0494 -21.2555 21.8687 -0.225259 54.9931 -1.60225 0.0190542 13.4791 -2.47482 4.3145 170.041 -13.1956 85.8145 -42.5132 -15.1871 -2.04206 76.5218 -8.07878 -1.15111 23.065 -2.32325 6.16993 2.41535 6.76357 -89.9501 13.37 4.81647 -0.511404 1.70777 4.78927 -0.723385 -20.8976 4.74697 0.963158 -0.884918 4.74697 0.963159 94.7541 -29.8616 -97.2566 11.9158 -14.6147 19.736 -38.5219 6.41028 -94.562 -31.617 2.77615 -18.4924 -79.9866 -35.2534 93.0825 -28.8254 20.4139 49.029 33.782 -30.4649 -110.573 -7.5004 0.958589 -27.4801 11.9844 -9.88094 2.40745 -11.0948 -9.54819 -8.9141 
-260.066 96.7246 -220.758 -98.8696 40.4261 -82.5908 -176.875 26.3065 92.6795 -30.4127 22.4135 0.086419 59.6452 0.28299 2.29086 17.9917 1.35587 -0.968292 170.339 -7.58833 87.6137 -42.6487 -9.03735 -0.795344 77.0207 -8.13908 -2.40389 19.1754 -1.7207 4.83789 2.12131 6.86945 -89.7976 13.1472 4.30778 -0.127189 1.48338 4.298 -0.317017 -21.1064 4.1465 1.17565 -1.09372 4.14648 1.17565 94.5418 -33.5529 -96.8283 16.5023 -15.9836 22.629 -36.3524 6.99266 -93.7876 -33.6318 2.98772 -18.0037 -80.5079 -39.8641 92.4539 -21.7215 20.354 36.7282 33.934 -27.7148 -108.614 -3.90079 0.168717 -23.8014 18.6047 -9.36929 5.07753 -13.0838 -9.58452 -10.6927 
-255.345 95.4222 -216.387 -98.4965 40.1673 -83.5112 -175.195 30.9928 93.118 -45.5502 23.5981 0.494566 67.3653 3.63656 1.88104 18.5928 0.169135 0.595794 170.955 -1.71662 87.3192 -44.3611 -7.37629 -0.72765 77.0416 -8.23479 -4.38076 16.2217 -2.16908 5.81964 1.87193 7.21251 -89.7134 12.4537 3.85584 0.128773 0.788419 3.85775 -0.0413112 -21.7888 3.63864 1.28319 -1.7761 3.63864 1.28319 93.2733 -38.8987 -97.9535 21.3086 -17.3357 26.273 -34.3348 7.49968 -90.9572 -35.965 2.25483 -14.2764 -81.6893 -44.4375 90.809 -16.0042 20.0015 23.2513 32.9301 -23.9069 -105.327 -3.36351 0.051848 -21.0652 25.7666 -8.1521 6.19504 -15.1848 -8.91908 -10.3072 
-250.706 93.7793 -211.888 -100.382 40.6961 -83.6557 -172.587 32.5011 93.5568 -59.7721 23.4334 1.13445 72.0292 5.60381 0.560152 22.4393 0.0642824 0.435192 171.633 2.12854 86.904 -48.202 -8.82212 -1.84989 78.0465 -8.81873 -5.45623 26.9949 -2.11158 5.5796 1.37838 7.53654 -89.7019 11.8002 2.88137 0.288753 0.132423 2.8913 0.161542 -22.4252 2.66128 1.14197 -2.41251 2.6613 1.14196 92.1052 -41.0274 -99.5174 28.3224 -20.315 29.9878 -35.1353 3.60744 -81.9009 -40.5944 1.53681 -11.2452 -82.6731 -48.3797 89.6107 -11.4484 18.3816 11.8585 32.4241 -21.5532 -103.576 -3.4137 0.0652176 -21.2834 28.725 -5.17893 6.39295 -15.7519 -6.37917 -8.98996 
-246.253 91.8121 -207.48 -102.546 41.7523 -83.3924 -169.361 32.3841 94.9073 -72.6638 22.4281 2.23913 72.9057 6.03862 0.241017 23.672 0.570868 -0.432336 172.962 6.01452 85.5728 -52.4034 -10.1962 -3.42721 83.1626 -11.1204 -3.30301 31.6741 -1.33639 3.44402 0.924665 7.84845 -89.6424 11.1734 2.00666 0.515511 -0.496037 2.02738 0.426658 -23.0405 1.75892 1.09491 -3.0278 1.75892 1.09491 94.6221 -41.5444 -95.0766 34.6291 -23.3411 31.4964 -39.5682 -4.65562 -72.6235 -36.208 1.41869 -12.654 -84.5405 -49.303 86.8475 -7.38473 15.7612 -1.66096 32.8224 -20.4292 -102.853 -1.41069 -0.242633 -22.3438 29.65 -2.76137 4.73219 -14.8932 -3.79346 -6.5221 
-241.854 89.7667 -203.191 -103.832 42.9096 -83.6822 -165.716 31.3741 96.5869 -83.4661 24.5623 3.78575 68.9954 4.72132 5.67532 25.0155 0.523105 -0.595408 174.356 10.9133 84.2898 -56.7704 -10.2117 -4.29358 88.5347 -13.5128 -1.63918 26.908 -0.910148 2.59264 0.256973 8.01597 -89.4503 10.8374 0.76562 1.02151 -0.833672 0.809839 0.986813 -23.3666 0.423266 1.20436 -3.35391 0.423254 1.20435 95.8527 -43.628 -92.6479 37.0932 -24.7532 34.3009 -39.316 -13.7264 -64.1656 -31.8801 0.861413 -12.3715 -83.7202 -48.4644 88.0043 -5.44306 10.928 -16.1788 31.866 -19.694 -104.877 -5.2477 0.367923 -22.534 28.4566 -0.0706366 2.17954 -12.6944 -0.428386 -5.13458 
